<svg width="32" height="32" viewBox="0 0 32 32" fill="none" xmlns="http://www.w3.org/2000/svg">
<g id="icon refresh">
<path id="Vector" d="M23.5333 8.46665C22.5465 7.47311 21.3728 6.68473 20.0799 6.14695C18.7869 5.60918 17.4003 5.33265 16 5.33331C13.171 5.33331 10.4579 6.45712 8.45751 8.45751C6.45712 10.4579 5.33331 13.171 5.33331 16C5.33331 18.829 6.45712 21.5421 8.45751 23.5425C10.4579 25.5428 13.171 26.6666 16 26.6666C20.9733 26.6666 25.12 23.2666 26.3066 18.6666H23.5333C22.9841 20.226 21.9644 21.5765 20.6151 22.5318C19.2658 23.487 17.6532 24 16 24C13.8782 24 11.8434 23.1571 10.3431 21.6568C8.84283 20.1565 7.99998 18.1217 7.99998 16C7.99998 13.8782 8.84283 11.8434 10.3431 10.3431C11.8434 8.84284 13.8782 7.99998 16 7.99998C18.2133 7.99998 20.1866 8.91998 21.6266 10.3733L17.3333 14.6666H26.6666V5.33331L23.5333 8.46665Z" fill="#14324F"/>
</g>
</svg>
