<svg width="92" height="19" viewBox="0 0 92 19" fill="none" xmlns="http://www.w3.org/2000/svg">
<g clip-path="url(#clip0_8652_1006)">
<path d="M13.9224 0H5.09037C2.36718 0 0.122375 2.25973 0.122375 5.00105V13.8918C0.122375 16.6702 2.36718 18.8929 5.09037 18.8929H13.9224C16.6824 18.8929 18.8904 16.6702 18.8904 13.8918V5.00105C18.8904 2.25973 16.6824 0 13.9224 0ZM5.38477 5.29741V6.22353H13.1864C14.9528 6.22353 16.388 7.66828 16.388 9.44643V10.5578C15.6152 9.59461 14.4376 9.00189 13.1864 9.00189H5.82637C4.05997 9.00189 2.62478 7.55714 2.62478 5.77899C2.62478 4.00084 4.05997 2.55609 5.82637 2.55609H13.1496C14.916 2.55609 16.3512 4.00084 16.3512 5.77899V6.89034C15.5784 5.92717 14.4008 5.33445 13.1496 5.33445H5.38477V5.29741ZM13.1864 16.3738H5.82637C4.05997 16.3738 2.62478 14.9291 2.62478 13.1509V12.0396C3.39758 13.0027 4.57517 13.5954 5.82637 13.5954H13.5912V12.6693H5.82637C4.05997 12.6693 2.62478 11.2246 2.62478 9.44643V8.33508C3.39758 9.29825 4.57517 9.89097 5.82637 9.89097H13.1496C14.916 9.89097 16.3512 11.3357 16.3512 13.1139C16.3512 14.892 14.9528 16.3738 13.1864 16.3738Z" fill="#0B78FF"/>
<path d="M29.2311 15.3736C28.0903 15.3736 27.0967 15.1143 26.2871 14.5586C25.4775 14.0029 24.8887 13.262 24.5575 12.3359L25.9559 11.5209C26.4343 13.0027 27.5383 13.7807 29.2311 13.7807C30.0775 13.7807 30.7031 13.5955 31.1815 13.262C31.6231 12.9286 31.8439 12.4471 31.8439 11.8914C31.8439 11.2987 31.6231 10.8541 31.1815 10.5578C30.7399 10.2614 30.0039 9.96506 28.9367 9.63166C28.4215 9.48348 28.0167 9.3353 27.7591 9.22416C27.5015 9.11303 27.1703 8.96485 26.7655 8.77962C26.3607 8.55736 26.0663 8.37213 25.8455 8.14986C25.6615 7.92759 25.4775 7.63124 25.2935 7.29783C25.1463 6.92738 25.0727 6.55694 25.0727 6.1124C25.0727 5.0381 25.4407 4.18607 26.2135 3.55631C26.9495 2.92654 27.8695 2.59314 28.9367 2.59314C29.8935 2.59314 30.7399 2.85245 31.4759 3.33404C32.2119 3.81562 32.7271 4.48243 33.0951 5.29741L31.7703 6.03831C31.2551 4.77878 30.2983 4.11198 28.9735 4.11198C28.3111 4.11198 27.7591 4.26016 27.3543 4.59356C26.9495 4.92696 26.7287 5.3715 26.7287 5.92717C26.7287 6.48285 26.9127 6.89034 27.3175 7.14965C27.7223 7.44601 28.3847 7.74237 29.3047 8.03873C29.6359 8.14986 29.8935 8.22395 30.0407 8.261C30.1879 8.29804 30.4087 8.40918 30.7031 8.52031C30.9975 8.63145 31.2183 8.74258 31.3655 8.81667C31.5127 8.89076 31.6967 9.00189 31.9543 9.11303C32.2119 9.26121 32.3591 9.37234 32.5063 9.48348C32.6167 9.59461 32.7639 9.74279 32.9111 9.92801C33.0583 10.1132 33.1687 10.2614 33.2423 10.4466C33.3159 10.6319 33.3895 10.8171 33.4263 11.0394C33.4631 11.2616 33.4999 11.5209 33.4999 11.7803C33.4999 12.8546 33.0951 13.7436 32.3223 14.3734C31.5127 15.0402 30.5191 15.3736 29.2311 15.3736Z" fill="#121212"/>
<path d="M36.1495 11.4097C36.2967 12.1877 36.6647 12.8174 37.2165 13.262C37.7685 13.7065 38.4677 13.9288 39.3141 13.9288C40.4917 13.9288 41.3013 13.4842 41.8533 12.6322L43.1413 13.3731C42.2949 14.7067 41.0069 15.3735 39.2773 15.3735C37.8789 15.3735 36.7383 14.929 35.8919 14.0399C35.0087 13.1508 34.5671 12.0395 34.5671 10.7059C34.5671 9.37227 35.0087 8.26092 35.8551 7.37185C36.7015 6.48277 37.8053 6.03823 39.1669 6.03823C40.4549 6.03823 41.5221 6.48277 42.3317 7.40889C43.1413 8.33501 43.5461 9.40931 43.5461 10.7059C43.5461 10.9282 43.5461 11.1504 43.5093 11.4097H36.1495ZM39.2037 7.52003C38.3941 7.52003 37.6949 7.7423 37.1797 8.22388C36.6279 8.70546 36.2967 9.29818 36.1863 10.0761H42.0741C41.9269 9.22409 41.6325 8.59433 41.0805 8.14979C40.5286 7.7423 39.9029 7.52003 39.2037 7.52003Z" fill="#121212"/>
<path d="M45.9014 4.66765C45.6069 4.66765 45.3493 4.55652 45.1653 4.37129C44.9813 4.18607 44.8709 3.92675 44.8709 3.63039C44.8709 3.33404 44.9813 3.11177 45.1653 2.8895C45.3493 2.66723 45.6069 2.59314 45.9014 2.59314C46.1957 2.59314 46.4165 2.70427 46.6374 2.8895C46.8214 3.11177 46.9317 3.33404 46.9317 3.63039C46.9317 3.92675 46.8214 4.14902 46.6374 4.37129C46.4165 4.59356 46.1957 4.66765 45.9014 4.66765ZM45.1285 15.1513V6.29762H46.6741V15.1513H45.1285Z" fill="#121212"/>
<path d="M57.567 6.29759V14.7808C57.567 16.0774 57.1253 17.1147 56.2421 17.8185C55.3589 18.5594 54.2917 18.8928 53.0773 18.8928C52.0837 18.8928 51.2373 18.7076 50.5381 18.3372C49.8389 17.9667 49.287 17.4481 48.919 16.7442L50.2437 15.9663C50.7221 16.9665 51.6789 17.4481 53.1141 17.4481C54.0341 17.4481 54.7333 17.1888 55.2486 16.7072C55.7638 16.2256 56.0213 15.5588 56.0213 14.7438V13.4843C55.2485 14.6697 54.1445 15.2624 52.7093 15.2624C51.4581 15.2624 50.3909 14.8179 49.5445 13.9288C48.6614 13.0397 48.2565 11.9284 48.2565 10.6689C48.2565 9.3723 48.6982 8.29801 49.5445 7.40893C50.4277 6.51985 51.4581 6.07532 52.7093 6.07532C54.1445 6.07532 55.2485 6.66803 56.0213 7.81642V6.29759H57.567ZM50.6853 12.8916C51.2741 13.4843 52.0101 13.7806 52.9301 13.7806C53.8133 13.7806 54.5494 13.4843 55.175 12.8916C55.7638 12.2988 56.0581 11.5579 56.0581 10.6318C56.0581 9.74275 55.7638 9.00186 55.175 8.40914C54.5862 7.81642 53.8501 7.52006 52.9301 7.52006C52.0469 7.52006 51.3109 7.81642 50.6853 8.40914C50.0965 9.00186 49.8021 9.74275 49.8021 10.6318C49.8021 11.5579 50.0965 12.2988 50.6853 12.8916Z" fill="#121212"/>
<path d="M60.8053 11.4097C60.9525 12.1877 61.3205 12.8174 61.8726 13.262C62.4245 13.7065 63.1237 13.9288 63.9701 13.9288C65.1477 13.9288 65.9573 13.4842 66.5093 12.6322L67.7973 13.3731C66.9509 14.7067 65.6629 15.3735 63.9333 15.3735C62.5349 15.3735 61.3941 14.929 60.5477 14.0399C59.6645 13.1508 59.2229 12.0395 59.2229 10.7059C59.2229 9.37227 59.6646 8.26092 60.511 7.37185C61.3573 6.48277 62.4613 6.03823 63.823 6.03823C65.111 6.03823 66.1781 6.48277 66.9877 7.40889C67.7973 8.33501 68.2021 9.40931 68.2021 10.7059C68.2021 10.9282 68.2021 11.1504 68.1653 11.4097H60.8053ZM63.823 7.52003C63.0134 7.52003 62.3142 7.7423 61.799 8.22388C61.247 8.70546 60.9157 9.29818 60.8053 10.0761H66.6566C66.5093 9.22409 66.215 8.59433 65.663 8.14979C65.1478 7.7423 64.5222 7.52003 63.823 7.52003Z" fill="#121212"/>
<path d="M71.3301 7.77945C71.8453 6.66811 72.7654 6.14948 74.0533 6.14948V7.74241C73.3173 7.70536 72.655 7.89059 72.103 8.33512C71.551 8.77966 71.2933 9.48351 71.2933 10.4467V15.1514H69.7477V6.29766H71.2933V7.77945H71.3301Z" fill="#121212"/>
<path d="M80.1254 2.74128H81.7445V15.1143H80.1254V2.74128Z" fill="#121212"/>
<path d="M91.9014 2.74128V4.29716H88.2582V15.1143H86.639V4.29716H83.0325V2.74128H91.9014Z" fill="#121212"/>
</g>
<defs>
<clipPath id="clip0_8652_1006">
<rect width="92" height="18.8929" fill="white"/>
</clipPath>
</defs>
</svg>
